<?xml version="1.0" encoding="UTF-8" standalone="no"?>
<!-- Created with Inkscape (http://www.inkscape.org/) -->

<svg
   xmlns:dc="http://purl.org/dc/elements/1.1/"
   xmlns:cc="http://creativecommons.org/ns#"
   xmlns:rdf="http://www.w3.org/1999/02/22-rdf-syntax-ns#"
   xmlns:svg="http://www.w3.org/2000/svg"
   xmlns="http://www.w3.org/2000/svg"
   xmlns:xlink="http://www.w3.org/1999/xlink"
   xmlns:sodipodi="http://sodipodi.sourceforge.net/DTD/sodipodi-0.dtd"
   xmlns:inkscape="http://www.inkscape.org/namespaces/inkscape"
   width="130mm"
   height="130mm"
   viewBox="0 0 130 130"
   version="1.1"
   id="svg8"
   inkscape:version="0.92.4 (5da689c313, 2019-01-14)"
   sodipodi:docname="radiologo.svg"
   inkscape:export-filename="C:\Users\Jonathan\Pictures\radiologo.png"
   inkscape:export-xdpi="248.65292"
   inkscape:export-ydpi="248.65292">
  <defs
     id="defs2">
    <inkscape:path-effect
       effect="spiro"
       id="path-effect47"
       is_visible="true" />
  </defs>
  <sodipodi:namedview
     id="base"
     pagecolor="#ffffff"
     bordercolor="#666666"
     borderopacity="1.0"
     inkscape:pageopacity="0.0"
     inkscape:pageshadow="2"
     inkscape:zoom="1"
     inkscape:cx="-137.46911"
     inkscape:cy="44.467036"
     inkscape:document-units="mm"
     inkscape:current-layer="layer5"
     showgrid="false"
     inkscape:window-width="1920"
     inkscape:window-height="1457"
     inkscape:window-x="2869"
     inkscape:window-y="34"
     inkscape:window-maximized="1"
     showguides="true"
     inkscape:guide-bbox="true"
     inkscape:pagecheckerboard="true"
     fit-margin-top="0"
     fit-margin-left="0"
     fit-margin-right="0"
     fit-margin-bottom="0"
     inkscape:object-paths="true"
     inkscape:snap-to-guides="true"
     inkscape:snap-page="true"
     inkscape:snap-intersection-paths="true"
     inkscape:snap-midpoints="false"
     inkscape:object-nodes="false"
     guidetolerance="10000">
    <sodipodi:guide
       position="65.001618,159.52086"
       orientation="1,0"
       id="guide3845"
       inkscape:locked="false" />
    <sodipodi:guide
       position="31.851845,64.999999"
       orientation="0,1"
       id="guide35"
       inkscape:locked="false"
       inkscape:label=""
       inkscape:color="rgb(0,0,255)" />
  </sodipodi:namedview>
  <metadata
     id="metadata5">
    <rdf:RDF>
      <cc:Work
         rdf:about="">
        <dc:format>image/svg+xml</dc:format>
        <dc:type
           rdf:resource="http://purl.org/dc/dcmitype/StillImage" />
        <dc:title />
        <cc:license
           rdf:resource="http://creativecommons.org/licenses/by-sa/4.0/" />
      </cc:Work>
      <cc:License
         rdf:about="http://creativecommons.org/licenses/by-sa/4.0/">
        <cc:permits
           rdf:resource="http://creativecommons.org/ns#Reproduction" />
        <cc:permits
           rdf:resource="http://creativecommons.org/ns#Distribution" />
        <cc:requires
           rdf:resource="http://creativecommons.org/ns#Notice" />
        <cc:requires
           rdf:resource="http://creativecommons.org/ns#Attribution" />
        <cc:permits
           rdf:resource="http://creativecommons.org/ns#DerivativeWorks" />
        <cc:requires
           rdf:resource="http://creativecommons.org/ns#ShareAlike" />
      </cc:License>
    </rdf:RDF>
  </metadata>
  <g
     inkscape:groupmode="layer"
     id="layer5"
     inkscape:label="matriximage"
     style="display:none"
     transform="translate(0,-7.075089)">
  </g>
  <g
     inkscape:label="vect-chara"
     inkscape:groupmode="layer"
     id="layer1"
     style="display:none"
     transform="translate(-32.340954,-71.997704)">
    <path
       style="fill:none;stroke:#000000;stroke-width:0.99999994px;stroke-linecap:butt;stroke-linejoin:miter;stroke-opacity:1"
       d="m 257.20508,129.63672 c -4.17183,12.82391 -20.43892,62.96934 -20.36133,65.25781 0.0884,2.60685 1.90116,2.63086 3.8457,2.63086 2.50706,0 2.38672,3.62305 2.38672,3.62305 0,0 0.0108,15.44476 -0.16601,29.41015 13.12436,11.29225 18.72601,19.02778 18.81445,33.52344 0.40086,16.68321 -14.31774,38.23019 -38.35938,38.09375 -19.54162,-0.074 -37.38764,-18.11944 -37.91796,-38.18359 -0.53034,-20.06419 20.50585,-34.33789 20.50585,-34.33789 0,0 -0.26683,-25.98627 -0.22265,-28.94727 0.0442,-2.96088 2.56445,-3.18164 2.56445,-3.18164 0,0 1.50246,0.13141 3.66797,0.043 2.16552,-0.0884 1.72266,-2.60742 1.72266,-2.60742 L 207.625,131.42383 c -22.9175,7.8881 -35.65234,23.20703 -35.65234,23.20703 0,0 -7.82859,-19.69689 -27.02149,-18.18164 -19.1929,1.51521 -27.88028,13.20704 -30.6582,18.25781 -2.77792,5.05077 -10.00056,18.86531 -2.17188,39.06836 8.08123,20.20309 31.31641,17.42383 31.31641,17.42383 0,0 -0.25288,31.06317 16.16211,58.58984 16.41498,27.52664 45.96094,39.64844 45.96094,39.64844 0,0 -18.93995,166.42149 -205.06055,65.40625 l 0.12304688,102.38867 c 0,0 138.53490312,2.18467 184.73242312,-54.19726 -0.83268,2.69083 -9.77467,29.35299 -4.13281,94.54296 h 156.71875 l -35.88868,-51.77539 c 0,0 7.40237,-20.05489 8.57032,-38.125 0.85821,-13.27853 7.43937,-47.28826 -35.42969,-54.22461 0,0 -3.2141,-0.24922 -1.95117,-6.9414 1.2627,-6.69226 2.27002,-20.42183 2.30664,-20.85742 0.0366,-0.43559 0.47965,-3.16645 0.67884,-3.76115 0.19916,-0.5947 1.27149,-1.2687 2.07505,-10.10799 0.82114,-8.93396 3.1373,-2.76937 4.19291,2.94726 0.80958,4.00003 1.1271,3.27537 1.34225,6.16016 0.26797,1.87502 -0.44579,11.07171 0.0898,12.85742 0.53571,1.78571 0.98161,5.17831 2.41016,4.01758 1.42859,-1.16073 2.67943,-4.19558 4.82227,-7.67774 2.14287,-3.48215 1.78458,-3.57141 2.94531,-6.25 1.41069,-3.61605 1.75316,-3.14894 2.85742,-13.92968 1.34955,-13.17548 10.08987,-4.46349 23.21484,-3.92774 0,0 2.2316,0.26732 3.03516,-0.0898 0.80357,-0.35717 3.92941,-1.07032 4.19727,-5.44531 0.26796,-4.375 0.0879,-20.26898 0.0879,-22.05469 0,-1.78572 2.76785,10e-4 2.5,-5.08789 -0.26797,-5.08929 -2.23158,-3.57201 -2.41016,-5.71485 -0.17839,-2.14284 -0.17841,-3.25837 2.1875,-5.84765 2.36606,-2.58928 3.21374,-1.20648 3.03516,-5.80469 -0.1784,-4.59821 -0.58033,-2.85743 -0.625,-4.41992 -0.0446,-1.5625 -0.31286,-7.49891 1.20507,-9.19531 1.51786,-1.69645 2.23242,-5.53711 3.48243,-6.78711 1.25,-1.25001 0.89257,-5.5349 0.89257,-6.42774 0,-0.89287 -0.53572,-1.60714 -3.125,-1.875 -2.58927,-0.26797 -5.17827,1.15989 -10.89257,-2.32226 -5.71427,-3.48216 -5.26701,-3.03462 -5.17774,-4.19532 0.0892,-1.16073 -2.41017,-0.62473 11.96485,-4.01757 14.37498,-3.39285 8.3022,-6.07144 6.96289,-8.125 0,0 -5.16309,-6.13533 -11.47657,-30.75782 -6.26411,-24.43008 -25.68895,-57.54319 -68.8164,-68.17773 z"
       transform="matrix(0.26458333,0,0,0.26458333,32.340954,64.922615)"
       id="path3729"
       inkscape:connector-curvature="0"
       sodipodi:nodetypes="ccsccccsccccccccsccscccccccccczzcccccccscccscccccccscccccccc" />
    <path
       style="fill:none;stroke:#000000;stroke-width:0.26458332px;stroke-linecap:butt;stroke-linejoin:miter;stroke-opacity:1"
       d="M 70.291885,120.80256 Z"
       id="path3749"
       inkscape:connector-curvature="0" />
  </g>
  <g
     inkscape:groupmode="layer"
     id="layer4"
     inkscape:label="vect-hand"
     style="display:none"
     transform="translate(-32.340954,-71.997704)">
    <path
       style="fill:none;stroke:#000000;stroke-width:0.26458332px;stroke-linecap:butt;stroke-linejoin:miter;stroke-opacity:1"
       d="m 124.4607,201.86541 c 0,0 -0.608,-1.49671 -0.70155,-4.86431 -0.0935,-3.36759 -0.0468,-4.11595 -0.0468,-4.11595 0,0 -1.96443,-2.99342 -3.50791,-7.20291 -1.54348,-4.20949 -1.80234,-4.85702 -1.81813,-6.79148 -0.0158,-1.93446 -0.46483,-3.6487 -1.37433,-5.40157 -0.90951,-1.75286 -1.83555,-4.43177 -1.90169,-4.96093 -0.0662,-0.52917 -0.0662,-2.18282 0.0165,-3.20808 0.0827,-1.02526 0.89297,-0.5457 1.19063,-0.31419 0.29765,0.23151 1.07487,0.71107 1.2237,1.20716 0.14882,0.4961 0.31419,1.47175 0.82682,1.53789 0.51263,0.0662 2.33164,0.0662 3.25768,0.0662 0.92604,0 0.39688,-0.72761 0.21497,-0.99219 -0.1819,-0.26458 -1.14101,-1.55443 -1.28984,-2.00091 -0.14883,-0.44649 -1.10794,-1.80248 -3.37344,-3.25768 -2.26549,-1.45521 -2.497,-1.65365 -2.89388,-2.29857 -0.39687,-0.64492 -0.85989,-2.34818 -0.52916,-2.66237 0.33073,-0.31419 0.4854,0.12762 2.29856,0.79375 2.10426,0.77308 1.76048,0.87988 1.70326,-0.0165 -0.0165,-0.5457 -0.11576,-2.26549 0.52917,-1.96784 0.64492,0.29766 5.35781,6.51537 5.90351,7.54063 0.5457,1.02526 2.29857,4.38216 3.00964,5.82083 0.71106,1.43867 4.00182,9.26042 4.5806,13.69219 0.57877,4.43177 1.30638,4.53099 1.70325,10.28568 0.39688,5.75468 0.22583,9.11115 0.22583,9.11115 h -9.24739"
       id="path3771"
       inkscape:connector-curvature="0"
       sodipodi:nodetypes="cccszccscccsccccssccsccccc" />
    <path
       style="fill:none;stroke:#000000;stroke-width:0.26458332px;stroke-linecap:butt;stroke-linejoin:miter;stroke-opacity:1"
       d="m 119.64541,170.47542 c -0.0413,0.35553 0.008,0.96738 0.0744,1.29811 0.0662,0.33073 0.51677,0.75655 0.66973,0.83509 0.15296,0.0786 0.61598,0.16124 0.90537,0.13643 0.28939,-0.0248 0.82269,0.0662 0.93844,-0.0124 0.11576,-0.0785 0.3514,-0.20257 0.31833,-0.40101 -0.0331,-0.19843 0.0165,-1.16582 -0.004,-1.27744 -0.0207,-0.11162 -0.0331,-0.38447 -0.0703,-0.44235 -0.0372,-0.0579 -0.1571,-0.16536 -0.27286,-0.23151 -0.11575,-0.0661 -0.25218,-0.15709 -0.45888,-0.21497 -0.20671,-0.0579 -0.51263,-0.0951 -0.64079,-0.0909 -0.12816,0.004 -0.52917,0.0207 -0.7028,0.0496 -0.17363,0.0289 -0.40928,0.14469 -0.52917,0.19843 -0.11989,0.0538 -0.22737,0.15297 -0.22737,0.15297 z"
       id="path3777"
       inkscape:connector-curvature="0" />
  </g>
  <g
     inkscape:groupmode="layer"
     id="layer3"
     inkscape:label="vect-headphones"
     style="display:none"
     transform="translate(-32.340954,-71.997704)">
    <path
       style="fill:none;stroke:#000000;stroke-width:0.26458332px;stroke-linecap:butt;stroke-linejoin:miter;stroke-opacity:1"
       d="m 98.342316,134.67814 c 0.02192,4.63543 -3.819921,6.94531 -6.912239,6.96185 -3.092318,-0.0165 -6.807648,-2.29675 -6.829557,-6.97838 -0.01865,-3.98574 3.12539,-6.97839 7.011458,-6.96185 3.444154,-0.0166 6.697264,2.46641 6.730338,6.97838 z"
       id="path3760"
       inkscape:connector-curvature="0"
       sodipodi:nodetypes="ccscc" />
  </g>
  <g
     inkscape:groupmode="layer"
     id="layer7"
     inkscape:label="color"
     style="display:inline"
     transform="translate(0,-7.075089)">
    <path
       style="opacity:1;vector-effect:none;fill:#f5f5f5;fill-opacity:1;stroke:none;stroke-width:0.94280899;stroke-linecap:butt;stroke-linejoin:miter;stroke-miterlimit:4;stroke-dasharray:none;stroke-dashoffset:0;stroke-opacity:1"
       d="m 181.74844,513.13504 c -1.22014,-10.29892 -1.80412,-36.27601 -1.12351,-49.97672 0.85845,-17.28047 3.01689,-33.162 5.31658,-39.11873 0.84246,-2.18219 -1.50508,-1.40067 -3.86446,1.28651 -16.42283,18.70457 -49.24749,33.87743 -91.622083,42.35135 -23.999131,4.79925 -46.835341,7.3445 -76.897862,8.57076 l -13.59403873,0.73312 v -31.09235 c 0,-17.1008 -0.05975549,-39.43632 -0.02594585,-50.01944 L -4.3705654e-4,376.32372 14.149877,382.66853 c 28.699905,12.86865 53.207914,22.01804 75.92695,24.62115 11.288553,1.29342 29.629163,0.49868 38.915463,-1.6863 23.27215,-5.47571 42.10031,-18.78913 56.1777,-39.72333 7.76306,-11.54429 16.14775,-31.69462 19.50415,-46.87295 2.15678,-9.7534 2.08746,-10.03943 -3.02032,-12.46277 -13.56086,-6.43381 -31.18604,-21.70834 -39.05436,-33.84571 -6.5026,-10.03066 -11.65111,-22.14319 -14.79405,-34.80489 -1.5013,-6.04821 -3.25677,-18.57963 -3.25677,-23.2485 v -3.97511 l -3.35876,-0.0123 c -4.63558,-0.017 -12.16326,-1.70205 -15.72845,-3.52087 -9.95588,-5.07908 -15.71848,-16.427 -15.80059,-31.11506 -0.1069,-19.12312 11.67947,-34.04404 29.93805,-37.89998 3.14534,-0.66425 6.97399,-0.97566 9.40912,-0.76531 7.89908,0.68233 15.84003,6.27743 20.41531,14.38438 1.1717,2.07615 2.30168,3.77482 2.51106,3.77482 0.20938,0 2.74928,-2.24993 5.64422,-4.99984 5.92053,-5.62393 13.64796,-10.91138 21.03846,-14.39546 7.80063,-3.67743 8.01375,-3.70183 8.4649,-0.9694 0.34673,2.09998 5.11143,52.53811 5.53027,58.54226 0.16785,2.4061 0.0957,2.47905 -2.84704,2.87783 -1.6606,0.22504 -3.41068,0.80468 -3.88909,1.2881 -0.647,0.65376 -0.81599,4.6951 -0.65965,15.77505 l 0.21019,14.89612 -5.30631,4.88943 c -6.53441,6.02105 -11.6444,13.51687 -13.81359,20.26305 -1.3965,4.34313 -1.58867,6.09166 -1.27839,11.63172 0.72333,12.91496 7.52574,24.20436 19.08663,31.67653 11.99581,7.75326 27.91739,7.78761 39.83339,0.0859 10.95138,-7.07823 18.67071,-20.73503 18.66437,-33.02043 -0.006,-10.64505 -3.88321,-19.11422 -12.91781,-28.21336 l -6.24841,-6.29305 0.18964,-15.53357 c 0.17751,-14.54005 0.10413,-15.59609 -1.14727,-16.51114 -0.73531,-0.53767 -2.0716,-0.97758 -2.96954,-0.97758 -1.23512,0 -1.63262,-0.39843 -1.63262,-1.63645 0,-2.82343 19.46478,-64.12448 20.36129,-64.12448 1.75634,0 14.50272,4.84843 19.64627,7.47298 16.716,8.52954 31.19612,23.21455 39.79849,40.36164 4.09759,8.16771 4.78022,10.01946 8.64915,23.4622 3.78591,13.15432 7.85344,23.42196 10.81871,27.30964 1.0133,1.32849 1.84236,2.5876 1.84236,2.79803 0,0.82317 -4.2624,2.51423 -9.9494,3.94731 -11.86025,2.98868 -11.2638,2.74532 -11.2638,4.59595 0,2.67386 7.98624,6.86012 14.08935,7.3854 l 4.64898,0.40013 0.22675,2.36747 c 0.15856,1.65552 -0.58569,3.99458 -2.47487,7.77817 -2.64256,5.2924 -2.6988,5.56812 -2.57234,12.60999 l 0.1293,7.19927 -2.42739,2.57379 c -1.88919,2.00312 -2.4274,3.17056 -2.4274,5.26529 0,1.5298 0.4578,3.07143 1.06066,3.57176 1.35838,1.12736 1.41842,6.07538 0.0799,6.58899 -0.77238,0.2964 -1.03741,3.10638 -1.2476,13.22784 -0.2591,12.47664 -0.31528,12.89069 -1.92605,14.195 -2.21366,1.79252 -4.9579,1.69594 -14.65753,-0.51589 -11.60791,-2.64697 -13.01709,-1.74233 -14.46203,9.28402 -0.45869,3.50018 -1.46818,8.06784 -2.24332,10.15035 -1.63276,4.38661 -6.76672,13.53773 -7.59492,13.53773 -0.99347,0 -1.41601,-3.00807 -1.42591,-10.15098 -0.0127,-9.14816 -2.51795,-19.5475 -4.70913,-19.5475 -1.24431,0 -2.03185,2.08988 -2.66462,7.07106 -0.27172,2.139 -0.92985,5.48008 -1.4625,7.42463 -0.53267,1.94454 -1.17457,6.08111 -1.42647,9.19238 -0.25189,3.11127 -0.88671,8.80451 -1.41072,12.65164 -1.39032,10.20759 -1.15775,10.55697 8.48181,12.74144 10.71167,2.42743 20.67767,9.35303 24.60137,17.09606 3.59665,7.09766 4.38592,11.14808 4.32806,22.21113 -0.0829,15.85075 -1.89876,26.63935 -8.15259,48.43682 l -0.8115,2.82843 16.97639,24.49746 c 9.33702,13.47361 17.22502,26.87263 17.4907,27.30251 0.3516,0.5689 -20.52383,0.46659 -76.59481,0.30518 l -76.84639,-0.22121 z"
       id="path3839"
       inkscape:connector-curvature="0"
       transform="scale(0.26458333)"
       sodipodi:nodetypes="cscssscsscssssscscscccssscsssccccscscssscscscssscsscsssscsccccsccscscsscsscccscsccscscc" />
    <path
       style="opacity:1;vector-effect:none;fill:#f5f5f5;fill-opacity:1;stroke:none;stroke-width:0.94280899;stroke-linecap:butt;stroke-linejoin:miter;stroke-miterlimit:4;stroke-dasharray:none;stroke-dashoffset:0;stroke-opacity:1"
       d="m 215.86936,287.85077 c -21.69281,-7.17185 -23.54127,-37.67251 -2.87031,-47.36183 3.48073,-1.63157 4.94222,-1.88811 10.75627,-1.88811 6.18187,0 7.11347,0.18948 11.472,2.3333 5.25782,2.58616 8.71801,6.22308 11.2886,11.86517 1.29894,2.85098 1.58866,4.75822 1.60451,10.56265 0.018,6.60372 -0.13867,7.40461 -2.31395,11.82555 -5.27083,10.71219 -18.68102,16.38464 -29.93712,12.66327 z"
       id="path3841"
       inkscape:connector-curvature="0"
       transform="scale(0.26458333)" />
    <path
       style="opacity:1;vector-effect:none;fill:#f5f5f5;fill-opacity:1;stroke:none;stroke-width:0.94280899;stroke-linecap:butt;stroke-linejoin:miter;stroke-miterlimit:4;stroke-dasharray:none;stroke-dashoffset:0;stroke-opacity:1"
       d="m 349.26814,518.08265 c -0.97897,-1.58676 -2.5754,-12.15456 -2.9287,-22.4485 l -0.40043,-11.66727 -5.91035,-12.02081 c -3.2507,-6.61145 -7.54927,-16.63469 -9.55238,-22.27386 -3.16049,-8.89745 -3.72783,-11.32818 -4.29106,-18.38478 -0.7686,-9.62943 -1.81623,-13.59162 -6.01908,-22.76443 -5.28189,-11.52783 -6.61898,-16.24343 -6.61898,-23.34355 0,-5.01591 0.21911,-6.34639 1.10089,-6.68476 1.67172,-0.6415 6.06525,3.31328 7.14471,6.43124 1.58001,4.56373 1.75323,4.6422 10.24795,4.6422 8.74308,0 9.53125,-0.49172 7.0663,-4.4085 -0.79922,-1.26996 -2.71564,-4.3773 -4.2587,-6.90521 -3.49652,-5.72815 -7.1494,-9.24329 -15.33842,-14.76005 -7.77165,-5.2356 -9.03165,-6.5448 -10.4877,-10.89728 -2.16157,-6.46142 -2.30172,-6.4201 7.53855,-2.22246 3.40756,1.45359 6.40529,2.43317 6.66162,2.17683 0.25633,-0.25633 0.40892,-2.13523 0.33909,-4.17533 -0.19617,-5.73118 0.58824,-6.14506 4.10955,-2.16832 1.66012,1.87484 6.49178,8.02266 10.73702,13.66184 6.49805,8.63169 8.92485,12.65712 15.34642,25.45584 11.53033,22.98085 17.91928,41.25889 21.99757,62.9325 1.20748,6.417 2.64417,13.73555 3.19265,16.26346 1.89892,8.75198 2.52768,15.99216 2.96291,34.1179 l 0.43721,19.44238 -16.63253,0.0156 c -9.17368,0.009 -16.26415,0.27698 -16.44411,-0.0147 z M 340.4637,407.92803 c 1.08634,-0.5814 1.3655,-1.4906 1.3569,-4.41942 -0.006,-2.02809 -0.24461,-4.03754 -0.53033,-4.46546 -1.56064,-2.33727 -6.97251,-3.13851 -10.46147,-1.54883 -1.73068,0.78855 -1.85139,1.11937 -1.55059,4.2498 0.35121,3.65514 1.895,5.95248 4.31855,6.42654 2.93141,0.5734 5.51258,0.4822 6.86694,-0.24263 z"
       id="path3843"
       inkscape:connector-curvature="0"
       transform="scale(0.26458333)"
       sodipodi:nodetypes="cscsscssccscsccscsccsssscsccccccsc" />
  </g>
  <g
     inkscape:groupmode="layer"
     id="layer2"
     inkscape:label="circle"
     style="display:none">
    <path
       style="fill:none;stroke:#000000;stroke-width:0.26458332px;stroke-linecap:butt;stroke-linejoin:miter;stroke-opacity:1"
       d="M 65.001618,-3.137191e-4 C 82.018355,1.0986746e-4 98.930132,7.0056118 110.9626,19.038447 122.99506,31.071283 130.00004,47.983264 130,65.000001 c -4e-5,17.016685 -7.00506,33.92858 -19.03751,45.961349 C 98.930028,122.99412 82.018303,129.99958 65.001618,130 47.984394,130.00042 31.071797,122.99535 19.038659,110.96249 7.0055209,98.929644 4.1328255e-5,82.017225 0,65.000001 -4.1328383e-5,47.982724 7.0054013,31.070221 19.038547,19.037303 31.071693,7.0043858 47.984341,-7.3731937e-4 65.001618,-3.137191e-4 Z"
       id="path45"
       inkscape:connector-curvature="0"
       inkscape:path-effect="#path-effect47"
       inkscape:original-d="M 65.001618,-3.137191e-4 C 86.668561,-21.666821 108.33414,43.332966 130,65.000001 151.66586,86.667037 86.668011,108.33307 65.001618,130 43.335228,151.66693 21.667471,86.666402 0,65.000001 -21.667471,43.333601 43.334678,21.666193 65.001618,-3.137191e-4 Z" />
  </g>
  <g
     inkscape:groupmode="layer"
     id="layer6"
     inkscape:label="color-circle"
     style="display:none">
    <path
       style="opacity:1;vector-effect:none;fill:#f5f5f5;fill-opacity:1;stroke:none;stroke-width:1.33333325;stroke-linecap:butt;stroke-linejoin:miter;stroke-miterlimit:4;stroke-dasharray:none;stroke-dashoffset:0;stroke-opacity:1"
       d="m 213.53089,488.25349 c -11.39735,-1.73339 -29.36632,-5.57227 -31.10109,-6.64442 -1.1452,-0.70777 -1.39891,-5.99471 -1.39891,-29.15105 0,-27.9899 0.85094,-38.99331 3.93494,-50.88244 0.7706,-2.97074 1.22353,-5.5789 1.00651,-5.79592 -0.21702,-0.21702 -3.61259,2.64113 -7.54571,6.35143 -15.82706,14.93045 -38.90315,26.27602 -70.37056,34.59832 l -10.974817,2.90255 -4.023358,-2.73021 C 85.770586,431.95667 59.060839,404.43864 50.946652,393.51616 42.141215,381.66318 32.933451,366.93565 33.791718,366.07738 c 0.306623,-0.30662 4.985873,1.10802 10.398332,3.14365 14.179734,5.333 34.842234,10.30459 48.504138,11.67055 51.079202,5.10704 89.287372,-20.50395 107.150382,-71.82307 3.17542,-9.12275 7.31096,-26.16021 6.51925,-26.85778 -0.18311,-0.16134 -2.35793,-1.31318 -4.83293,-2.55965 -13.21824,-6.65703 -30.43414,-21.29599 -37.81555,-32.15518 -10.18127,-14.9782 -17.10878,-35.48723 -18.78797,-55.62216 l -0.66298,-7.94976 -6.37212,-0.5115 c -16.60373,-1.33279 -26.64049,-12.54266 -28.08464,-31.36721 -1.30776,-17.0466 8.83981,-33.60043 23.86622,-38.93319 7.23926,-2.56916 16.14141,-2.98555 21.34472,-0.99839 5.1297,1.95905 12.58251,8.89887 14.48236,13.48552 0.69993,1.68979 1.68539,3.07234 2.18992,3.07234 0.50452,0 2.81243,-1.85633 5.12868,-4.12517 7.55217,-7.39761 27.60202,-19.3175 29.42562,-17.49391 0.65202,0.65202 6.14417,53.31292 6.2439,59.86908 0.0343,2.25658 -0.39391,2.75 -2.38673,2.75 -4.97464,0 -5.57143,1.89653 -5.57143,17.70526 v 14.56241 l -6.85817,7.21987 c -8.19183,8.62386 -12.20398,16.41763 -12.89717,25.05326 -1.49554,18.63128 13.28988,37.52198 32.48701,41.50729 6.9106,1.43464 15.51245,0.24734 22.80272,-3.14741 6.6701,-3.10597 15.43464,-12.04008 19.03245,-19.40068 2.64809,-5.41762 2.93277,-6.97064 2.93296,-16 1.8e-4,-9.01953 -0.28529,-10.58144 -2.91154,-15.93026 -1.70344,-3.46935 -5.55494,-8.57345 -9.28127,-12.29979 l -6.36952,-6.36953 0.1161,-15.40844 c 0.0639,-8.47464 -0.17364,-15.87724 -0.52775,-16.45021 -0.35412,-0.57298 -1.4423,-1.04177 -2.41817,-1.04177 -3.82814,0 -3.95432,0.56399 8.86796,-39.63734 l 8.33655,-26.13735 6.59392,2.24563 c 24.89168,8.47711 43.74548,25.34267 54.60493,48.84651 1.83022,3.96128 4.93733,12.68909 6.90468,19.39515 4.6197,15.74706 7.09574,22.28835 10.12808,26.75676 1.35093,1.9907 2.45623,4.0369 2.45623,4.54711 0,0.86177 -2.40786,1.66982 -15.5,5.20163 -3.78893,1.02212 -5,1.81248 -5,3.26307 0,2.63516 9.49229,7.51883 14.61419,7.51883 3.6354,0 3.88581,0.18992 3.88581,2.94709 0,1.62089 -1.125,5.06292 -2.5,7.64893 -2.02278,3.80434 -2.5,6.12524 -2.5,12.15856 0,6.49487 -0.32248,7.83995 -2.5,10.42779 -2.54925,3.02961 -3.30204,7.20391 -1.5,8.31763 0.55,0.33992 1,1.91492 1,3.5 0,1.58508 -0.45,3.16008 -1,3.5 -0.5798,0.35834 -1,5.83603 -1,13.03596 0,12.08759 -0.0654,12.4608 -2.45936,14.02937 -2.60137,1.70448 -3.44713,1.64011 -15.69768,-1.19473 -4.99292,-1.15539 -7.16929,-1.26632 -8.70624,-0.44377 -2.12817,1.13896 -4.12148,6.58564 -4.13114,11.28822 -0.0131,6.39726 -8.40604,24.33863 -10.12019,21.63375 -0.47012,-0.74184 -0.86166,-4.58915 -0.87008,-8.54958 -0.008,-3.96043 -0.49197,-9.42338 -1.07456,-12.1399 -1.10312,-5.14366 -3.30631,-9.12709 -4.42781,-8.00559 -1.93897,1.93896 -7.52817,40.5457 -6.50028,44.8999 0.45328,1.92013 1.76171,2.61275 7.68742,4.06935 17.6552,4.33985 26.69509,13.48128 29.49857,29.82991 2.0361,11.8736 -1.28929,38.86784 -6.64269,53.92284 -0.85578,2.40665 -1.5505,5.10665 -1.54383,6 0.007,0.89335 5.62127,9.70178 12.47691,19.5743 l 12.46478,17.95003 -3.22691,1.37581 c -4.49099,1.91476 -27.30808,7.6758 -38.72691,9.77808 -12.47156,2.29609 -58.29923,2.95962 -71,1.02799 z"
       id="path60"
       inkscape:connector-curvature="0"
       transform="scale(0.26458333)" />
    <path
       style="opacity:1;vector-effect:none;fill:#f5f5f5;fill-opacity:1;stroke:none;stroke-width:1.33333325;stroke-linecap:butt;stroke-linejoin:miter;stroke-miterlimit:4;stroke-dasharray:none;stroke-dashoffset:0;stroke-opacity:1"
       d="m 346.53089,462.21907 c 0,-4.33488 -0.59925,-6.53545 -2.67343,-9.81739 -7.61602,-12.05073 -16.16403,-35.40922 -17.45003,-47.68438 -1.04247,-9.9507 -2.21717,-13.91658 -8.45526,-28.54575 -3.06484,-7.18747 -3.91782,-10.56079 -4.23539,-16.75 -0.3109,-6.05898 -0.10182,-7.74515 0.95822,-7.72777 2.33912,0.0384 5.62623,3.32879 7.22049,7.22777 l 1.53334,3.75 h 7.99201 c 4.39561,0 8.27694,-0.46103 8.62519,-1.02451 0.70154,-1.13511 -6.369,-12.98226 -10.20738,-17.10314 -1.34613,-1.44521 -6.01338,-5.0351 -10.37167,-7.97754 -7.85916,-5.306 -10.93609,-9.18757 -10.93609,-13.79594 0,-1.15438 0.169,-2.09887 0.37556,-2.09887 0.20657,0 2.9194,1.125 6.02852,2.5 7.95959,3.52011 8.59592,3.37205 8.59592,-2 0,-2.475 0.41014,-4.5 0.91143,-4.5 0.94259,0 12.11758,13.71317 18.33545,22.5 9.15739,12.94083 23.72489,45.96885 29.11029,66 3.35052,12.46237 9.00277,42.11963 8.35106,43.81793 -0.78669,2.05009 -25.47366,16.27072 -31.45823,18.12115 -2.14788,0.66412 -2.25,0.4421 -2.25,-4.89156 z m -5.18206,-85.51126 c 0.37048,-5.20145 -1.30823,-7.03626 -6.43765,-7.03626 -4.26677,0 -6.57365,2.33715 -5.74688,5.82232 1.09417,4.6124 3.30988,6.30661 7.81484,5.97549 4.03138,-0.29632 4.05334,-0.32025 4.36969,-4.76155 z"
       id="path62"
       inkscape:connector-curvature="0"
       transform="scale(0.26458333)" />
    <path
       style="opacity:1;vector-effect:none;fill:#f5f5f5;fill-opacity:1;stroke:none;stroke-width:1.33333325;stroke-linecap:butt;stroke-linejoin:miter;stroke-miterlimit:4;stroke-dasharray:none;stroke-dashoffset:0;stroke-opacity:1"
       d="m 217.26969,261.24058 c -22.43857,-5.96424 -25.55317,-35.96414 -4.85633,-46.7763 9.06632,-4.7363 20.06685,-3.54363 27.26072,2.9556 6.24989,5.64639 8.31045,10.41982 8.31045,19.25167 0,8.76554 -2.11739,13.74155 -8.072,18.96977 -6.5709,5.76933 -14.56542,7.74626 -22.64284,5.59926 z"
       id="path64"
       inkscape:connector-curvature="0"
       transform="scale(0.26458333)" />
  </g>
</svg>
